<svg xmlns="http://www.w3.org/2000/svg" width="1219.5999755859375" height="243.9219970703125" style=""><rect id="backgroundrect" width="100%" height="100%" x="0" y="0" fill="none" stroke="none" style="" class=""/><g class="currentLayer" style=""><title>Layer 1</title><path fill="#a783b3" d="M11.071321069717385,38.401516885757445 c-1.75,-1.7520000000000002 -3.502,-11.087 -3.502,-11.087 c0,-5.254 1.7520000000000002,-7.588 1.7520000000000002,-7.588 s30.927,-16.338 85.779,-16.338 c18.09,-1.7520000000000002 45.518,-1.7520000000000002 74.694,7.585 c1.75,1.7520000000000002 3.502,3.502 3.502,5.251 c1.75,3.502 1.75,7.588 1.75,9.338000000000001 c1.75,7.587 1.75,12.839 1.75,16.341 c0,1.749 -3.499,7.584 -3.499,9.334 c-1.7520000000000002,5.254 1.75,23.926 0,32.679 c0,9.337 -3.502,42.014 -12.839,62.438 c-7.585,22.179 -22.173,18.093 -29.177,18.093 l35.012,72.942 H-0.015678930282604142 L25.659321069717407,109.59151688575744 s0,-3.499 -3.502,-5.251 c-5.835,-4.083 -11.086,-11.086 -11.086,-11.086 s-3.502,-3.501 -7.585,-23.926 c0,0 -3.502,-19.84 0,-23.926 c1.75,-1.75 5.251,-5.251 7.585,-5.251 v-1.75 z" id="svg_1" class="" stroke-opacity="1" stroke="#2875c1" fill-opacity="1"/><path fill="#d2aae0" d="M142.36732106971743,72.82951688575744 l-11.086,-3.502 s-1.75,0 -3.502,1.7520000000000002 c0,1.75 -1.75,9.334 -1.75,9.334 v1.7530000000000001 l25.675,18.09 s-19.84,-1.7520000000000002 -27.428,-1.7520000000000002 c-7.585,1.7520000000000002 -19.84,9.337 -29.177,11.086 c-7.585,1.7520000000000002 -40.264,3.502 -42.014,3.502 l-12.839,-51.351 s-1.75,-12.839 -14.588000000000001,-12.839 c-11.087,0 -12.836,1.7520000000000002 -12.836,3.501 c-1.7520000000000002,1.75 0,3.502 0,3.502 l35.013,56.602 S23.909321069717407,101.42151688575744 15.156321069717421,90.33451688575745 c-5.251,-7.585 -9.337,-38.515 -5.251,-43.766 c1.75,-3.502 22.173,-9.337 29.177,-7.585 c3.499,0 7.584,3.499 9.334,7.585 h1.7520000000000002 s-2.917,-9.921 -9.921,-9.921 c-12.836,-1.75 -23.926,1.7520000000000002 -23.926,1.7520000000000002 h-1.75 c0,-1.7520000000000002 -1.75,-12.839 -1.75,-12.839 s0,-1.75 1.75,-3.502 c0,0 32.679,-14.589 82.28,-14.589 c5.251,0 51.351,0 72.942,9.337 c1.75,1.7520000000000002 0,7.587 0,12.839 c-1.7520000000000002,1.75 -5.251,3.502 -5.251,3.502 c-1.7520000000000002,0 -3.502,3.499 -3.502,3.499 s3.502,42.016 5.251,43.765 c0,1.7530000000000001 -1.75,1.7530000000000001 -7.585,1.7530000000000001 h-23.926 s-5.251,0 -5.251,-3.502 c0,-1.75 1.75,-5.251 1.75,-5.251 h5.251 s9.923,-0.5820000000000003 5.837,-0.5820000000000003 zM107.93932106971738,109.59151688575744 s22.173,-3.499 45.515,1.7520000000000002 c0,0 5.254,3.502 5.254,7.585 c0.5820000000000003,0 -36.18,1.7520000000000002 -50.769,-9.337 zM109.68932106971738,146.35351688575744 s5.254,-25.673000000000002 47.267,-22.174 c0,0 3.502,1.75 -5.251,11.09 c-8.754,9.334 -27.428,14.588000000000001 -42.016,11.084 z" id="svg_2" class="" fill-opacity="1"/><path fill="#a783b3" d="M100.3543210697174,20.31051688575745 s5.251,0 23.923000000000002,3.502 c9.337,1.75 14.588000000000001,3.502 16.341,5.251 c1.75,0 1.75,1.75 0,1.75 c0,1.7520000000000002 -23.926,-7.585 -38.514,-5.251 c0,0 -14.588000000000001,5.251 -32.679,22.176 h-7.585 c0.5840000000000003,0 18.672,-18.675 38.514,-27.428 z" id="svg_3" class="" fill-opacity="1"/><path fill="#a783b3" d="M84.01332106971739,45.401516885757445 s14.588000000000001,-7.584 23.926,-9.334 c7.585,-1.7520000000000002 12.839,-1.7520000000000002 16.338,0 c3.502,0 7.588,9.334 7.588,11.087 c0,0 -11.087,5.251 -22.176,3.502 c-9.335,-1.169 -19.84,-1.169 -25.676000000000002,-5.255 z" id="svg_4" class="" fill-opacity="1"/><path fill="#d2aae0" d="M169.79532106971743,34.89951688575745 c1.75,0 1.75,0 3.502,1.75 c1.75,0 0,3.501 0,3.501 c0,1.7530000000000001 -1.7520000000000002,0 -9.337,0 c0.5840000000000003,0 4.083,-5.251 5.835,-5.251 zM30.911321069717417,109.59151688575744 l14.588000000000001,11.089 l25.679,111.454 h-63.609 zM67.6763210697174,164.44651688575743 s30.926,19.837 36.762,27.428 l3.502,42.011 h-23.926 l-16.338,-69.439 zM122.52832106971744,202.95751688575746 s18.09,18.093 23.926,30.927 h-30.929 l7.003,-30.927 z" id="svg_5" class="" fill-opacity="1"/><path fill="#e4baf4" d="M148.2033210697174,38.401516885757445 s1.7520000000000002,-1.7520000000000002 1.7520000000000002,1.749 c1.75,9.337 5.251,30.93 5.251,32.679 c0,3.501 -3.501,1.75 -3.501,1.75 l-3.502,-36.178 zM82.26432106971743,7.4715168857574525 h1.75 l9.337,16.341 l-3.501,1.75 l-7.586,-18.091 zM40.248321069717406,62.32751688575745 s-3.502,-11.09 3.502,-12.839 c7.585,-1.75 16.338,-1.75 29.177,-1.75 c0,0 -18.09,3.499 -23.926,5.251 c-7.001,1.75 -8.753,9.338000000000001 -8.753,9.338000000000001 z" id="svg_6" class="" fill-opacity="1"/><g id="svg_7" class="" fill="#a783b3" fill-opacity="1"><g fill="#a783b3" id="svg_8" fill-opacity="1"><path d="M301.6763210697174,142.85451688575745 v60.69 c0,22.755 2.334,33.257 25.675,33.257 v2.337 h-88.699 v-2.337 c26.259,0 23.342,-28.009 23.342,-50.763 V120.68051688575744 c0,-22.76 4.67,-67.691 -21.589,-67.691 v-2.333 h85.194 v2.333 c-22.173,0 -23.341,13.42 -23.341,36.178 v47.852 h4.086 c35.596000000000004,-35.597 39.679,-42.017 42.016,-45.516 c18.087,-29.177 1.165,-37.349 -8.753,-37.349 v-3.499 h72.358 v3.499 c-12.255,0 -35.596000000000004,19.258 -49.601,30.345 l-53.687,53.688 c72.942,3.498 71.193,41.429 79.362,70.024 c4.667,15.757 7.584,25.673000000000002 25.091,29.177 v1.75 h-64.771 c-10.506,-55.436 -15.173,-100.951 -46.683,-96.284 zM473.8203210697174,150.43951688575746 c0,26.259 4.083,33.263 19.256,33.263 v1.749 h-75.86 v-1.749 c15.173,0 16.922,-18.087 16.922,-33.263 v-68.272 c0,-18.091 -4.083,-28.012 -19.255,-28.012 v-3.499 h58.938 v99.783 h-0.0010000000000000007 zM453.39632106971743,0.47051688575744793 a20.919,20.919 0 0 1 21.005,21.008 c0,11.671 -9.334,21.005 -21.005,21.005 s-21.008,-9.334 -21.008,-21.005 a20.921,20.921 0 0 1 21.008,-21.008 zM552.5983210697174,67.57751688575745 c13.42,-19.259 22.173,-19.259 37.346000000000004,-19.259 c36.178,0 39.096,27.428 39.096,51.354 v51.354 c0,25.091 2.918,33.257 16.925,33.257 v1.7560000000000002 H574.1873210697174 v-1.7560000000000002 c12.839,0 12.839,-11.084 12.839,-33.257 V98.50451688575744 c0,-18.672 2.333,-42.598 -12.255,-42.598 c-16.338,0 -16.922,13.42 -21.592,21.008 v74.111 c0,22.173 1.1680000000000001,33.257 14.007,33.257 v1.7560000000000002 H495.9933210697174 v-1.7560000000000002 c14.004,0 16.338,-11.671 16.338,-33.257 v-68.859 c0,-18.675 -3.499,-28.012 -18.672,-28.012 v-3.499 h58.938 v16.922 h0.0010000000000000007 zM927.2323210697174,50.65651688575745 h28.009 l-4.667,9.334 h-22.761 v81.115 c0,40.848 23.923000000000002,37.343 33.264,28.59 l0.5810000000000003,2.3360000000000003 c-21.006,16.925 -35.594,13.42 -40.848,13.42 c-20.425,0 -33.264,-14.588000000000001 -33.264,-33.844 v-91.617 h-22.755 v-1.165 c18.088,-6.42 47.265,-29.761 60.686,-49.601 h2.3360000000000003 l-0.5810000000000003,41.432 z" id="svg_9" fill="#a783b3" fill-opacity="1"/><path d="M946.4883210697174,119.51251688575745 c0,-32.679 29.177,-71.774 64.771,-71.774 c32.682,0 63.608,35.013 63.608,69.441 c0,40.845 -35.013,70.609 -63.608,70.609 c-35.013,0.5810000000000003 -64.771,-30.927 -64.771,-68.276 zm88.112,-3.502 c0,-40.848 -1.1680000000000001,-65.354 -22.755,-65.354 c-23.342,0 -21.592,31.511 -21.592,65.354 c0,40.851 0,70.028 21.592,70.028 c23.923000000000002,-0.5870000000000003 22.755,-29.177 22.755,-70.028 z" id="svg_10" fill="#a783b3" fill-opacity="1"/><path d="M1125.6373210697175,67.57751688575745 c13.42,-19.259 22.173,-19.259 37.343,-19.259 c36.181,0 39.099,27.428 39.099,51.354 v51.354 c0,25.091 2.3360000000000003,33.257 16.925,33.257 v1.7560000000000002 h-71.78 v-1.7560000000000002 c12.839,0 12.839,-11.084 12.839,-33.257 V98.50451688575744 c0,-18.672 1.75,-42.598 -12.252,-42.598 c-16.338,0 -16.925,13.42 -21.592,21.008 v74.111 c0,22.173 1.1680000000000001,33.257 14.007,33.257 v1.7560000000000002 h-70.611 v-1.7560000000000002 c14.001,0 16.338,-11.671 16.338,-33.257 v-68.859 c0,-18.675 -3.499,-28.012 -18.669,-28.012 v-3.499 h58.936 l-0.5830000000000003,16.922 zM715.4023210697173,165.02751688575745 c-4.08,5.255 -9.915,22.761 -31.507,22.761 c-25.092,0 -44.354,-22.761 -44.354,-68.859 c0,-37.346000000000004 23.929,-70.609 51.356,-70.609 c19.837,0 26.841,17.507 26.841,17.507 V51.82151688575745 h60.104 v2.918 s-19.837,-4.083 -19.837,24.51 V183.12051688575747 c-1.7550000000000003,28.009 -14.007,47.846000000000004 -63.027,61.271 l0.5870000000000003,-3.505 c28.591,-19.836 22.174,-49.6 19.837,-75.859 zm3.505,-52.519 c0,-30.342 -2.3360000000000003,-60.104 -22.173,-60.104 c-14.008,0 -17.507,23.926 -17.507,67.691 c0,36.765 2.918,60.688 16.92,60.688 c12.258,0 22.173,-27.427 22.173,-57.186 l0.5870000000000003,-11.089 z" id="svg_11" fill="#a783b3" fill-opacity="1"/><path d="M765.5913210697174,142.85451688575745 h19.256 c-2.337,42.016 26.84,42.597 33.844,42.597 c12.839,0 24.51,-9.921 24.51,-21.005 c0,-34.431 -71.774,-19.843 -71.774,-71.777 c0,-23.925 18.088,-43.765 44.934,-43.765 c43.766,0 49.015,26.259 49.015,35.596000000000004 h-16.338 c1.749,-6.4190000000000005 -1.169,-33.263 -29.178,-33.263 c-22.76,0 -21.592,18.675 -21.592,19.843 c0,33.26 77.609,21.005 77.609,70.605 c0,25.092 -21.005,45.516 -49.014,47.271 c-48.433,1.163 -61.272,-33.85 -61.272,-46.102 zM421.8833210697174,196.54051688575743 h34.431 v4.668 h-14.008 v37.349 h-5.835 V201.20851688575743 h-14.588000000000001 zM499.4953210697174,238.55751688575745 V196.54051688575743 h30.927 v5.248 H505.33132106971743 v12.84 h23.342 v4.667 H505.33132106971743 v14.007 h25.675 v5.255 zM593.4463210697174,195.37251688575745 c5.251,0 9.334,1.1680000000000001 12.252,4.086 s4.67,5.836 4.67,9.334 h-5.835 c-0.5840000000000003,-2.918 -1.7520000000000002,-4.667 -4.085,-6.416 c-1.75,-1.75 -4.667,-2.337 -8.169,-2.337 a14.072,14.072 0 0 0 -9.921,4.086 c-2.333,2.918 -4.083,7.585 -4.083,13.421 c0,4.667 1.166,8.753 3.502,12.258 c2.333,2.917 5.835,4.667 10.502,4.667 c4.086,0 7.585,-1.75 9.337,-4.667 c1.165,-1.7560000000000002 1.75,-4.086 2.333,-7.004 h5.835 c-0.5840000000000003,4.667 -2.333,8.166 -4.667,11.084 c-3.502,3.504 -7.588,5.254 -13.423,5.254 c-4.667,0 -8.753,-1.75 -12.255,-4.667 c-4.083,-4.086 -6.417,-9.922 -6.417,-18.094 c0,-6.417 1.749,-11.083 4.667,-15.169 c4.667,-3.5 9.922,-5.836 15.757,-5.836 zM655.8863210697174,238.55751688575745 V196.54051688575743 h5.836 v17.506 h22.173 V196.54051688575743 h5.835 v42.017 h-5.835 v-19.843 h-22.173 v19.843 zM760.3373210697174,238.55751688575745 V196.54051688575743 h7.003 l21.006,33.845 V196.54051688575743 h5.834 v42.017 h-6.417 l-21.591,-33.851 v33.851 zM852.5353210697174,229.80451688575744 c-2.331,-2.918 -3.499,-7.004 -3.499,-11.672 c0,-5.835 1.1680000000000001,-10.508 4.086,-13.426 c2.917,-2.918 6.416,-4.667 10.502,-4.667 c4.668,0 8.172,1.749 10.503,4.667 c2.3360000000000003,2.918 4.086,7.004 4.086,12.258 c0,4.668 -1.1680000000000001,8.754 -3.499,12.252 c-2.3360000000000003,3.505 -5.836,5.255 -11.09,5.255 c-4.667,0 -8.753,-1.169 -11.089,-4.667 zm-5.249,-26.847 c-2.918,4.086 -4.086,8.753 -4.086,14.589 c0,6.422 1.75,11.67 5.254,15.756 c3.499,4.086 8.754,6.417 15.17,6.417 c7.004,0 12.252,-2.331 15.757,-7.585 c2.918,-4.086 4.667,-9.334 4.667,-15.757 c0,-5.835 -1.1680000000000001,-10.503 -4.086,-14.589 c-3.499,-4.666 -9.334,-6.997 -16.338,-6.997 c-7.585,0.5810000000000003 -12.839,2.917 -16.338,8.166 zM933.0683210697174,238.55751688575745 V196.54051688575743 h5.835 v36.762 h21.586 v5.255 zM1014.1773210697174,229.80451688575744 c-2.331,-2.918 -3.499,-7.004 -3.499,-11.672 c0,-5.835 1.1680000000000001,-10.508 4.086,-13.426 s6.417,-4.667 10.503,-4.667 c4.667,0 8.166,1.749 10.502,4.667 c2.337,2.918 4.086,7.004 4.086,12.258 c0,4.668 -1.1680000000000001,8.754 -3.505,12.252 c-2.33,3.505 -5.835,5.255 -11.083,5.255 c-4.6690000000000005,0 -8.754,-1.169 -11.09,-4.667 zm-5.249,-26.847 c-2.917,4.086 -4.086,8.753 -4.086,14.589 c0,6.422 1.75,11.67 5.249,15.756 c3.505,4.086 8.753,6.417 15.176,6.417 c7.003,0 12.252,-2.331 15.756,-7.585 c3.499,-4.086 4.668,-9.334 4.668,-15.757 c0,-5.835 -1.169,-10.503 -4.086,-14.589 c-3.499,-4.666 -9.335,-6.997 -16.338,-6.997 c-7.004,0.5810000000000003 -12.84,2.917 -16.339,8.166 zM1113.3793210697174,195.37251688575745 c4.086,0 7.584,0.5810000000000003 10.502,2.3360000000000003 c4.086,2.331 7.004,5.836 7.591,11.671 h-5.835 c-0.5880000000000003,-2.917 -2.337,-5.254 -4.086,-6.422 c-2.337,-1.169 -4.668,-2.331 -8.172,-2.331 c-4.086,0 -7.004,1.162 -9.922,4.668 c-2.918,2.917 -4.08,7.003 -4.08,12.838000000000001 c0,5.249 1.162,9.335 3.499,12.253 c2.3360000000000003,2.917 5.835,4.667 10.503,4.667 c4.086,0 7.003,-1.1680000000000001 9.34,-3.499 c2.33,-2.337 3.499,-5.835 4.08,-10.503 h-13.42 v-5.254 h18.674 v22.761 h-3.499 l-1.1680000000000001,-5.255 c-1.749,2.337 -3.505,3.499 -5.254,4.668 c-2.331,1.1680000000000001 -5.836,2.3360000000000003 -9.335,2.3360000000000003 c-5.254,0 -9.34,-1.749 -12.839,-4.667 c-4.086,-4.086 -5.835,-9.34 -5.835,-16.925 c0,-7.004 1.749,-12.84 5.835,-16.926 c2.918,-4.666 7.585,-6.416 13.421,-6.416 zM1194.4933210697172,221.63251688575744 l-15.757,-25.092 h6.416 l12.258,20.424 l11.671,-20.424 h7.004 l-15.757,25.092 v16.925 h-5.835 zM1199.7413210697173,40.15051688575745 c0,-5.251 4.673,-9.918 9.922,-9.918 c5.835,0 9.921,4.667 9.921,9.918 c0,5.836 -4.667,9.922 -9.921,9.922 c-5.836,0.5840000000000003 -9.922,-4.086 -9.922,-9.922 zm18.094,0 c0,-4.667 -3.505,-8.753 -8.172,-8.753 c-4.668,0 -8.754,4.086 -8.754,8.753 c0,4.67 3.505,8.753 8.754,8.753 c4.667,0 8.172,-3.502 8.172,-8.753 zm-3.505,5.836 h-1.75 l-2.917,-5.251 h-2.331 v5.251 h-1.1680000000000001 v-11.087 h4.667 c2.918,0 4.086,1.1680000000000001 4.086,2.918 c0,2.333 -1.75,2.917 -3.505,2.917 l2.918,5.252 zm-5.249,-6.42 c1.75,0 4.086,0 4.086,-1.749 c0,-1.75 -1.1680000000000001,-1.75 -2.917,-1.75 h-2.918 v4.083 h1.749 v-0.5840000000000003 z" id="svg_12" fill="#a783b3" fill-opacity="1"/></g></g></g></svg>