<svg xmlns:svg="http://www.w3.org/2000/svg" xmlns="http://www.w3.org/2000/svg" version="1.0" width="200" height="36.09330368041992"><rect id="backgroundrect" width="100%" height="100%" x="0" y="0" fill="none" stroke="none"/>
  <defs id="defs2872">
    <clipPath id="clipPath3582">
      <path d="M 0.059998,793.74 L 609.54,793.74 L 609.54,0.06 L 0.059998,0.06 L 0.059998,793.74 z" id="path3584"/>
    </clipPath>
    <clipPath id="clipPath3576">
      <path d="M -0.224,793.35 L 609.224,793.35 L 609.224,-0.35 L -0.224,-0.35 L -0.224,793.35 z" id="path3578"/>
    </clipPath>
    <clipPath id="clipPath3570">
      <path d="M -580.287,793.35 L 178.358,793.35 L 178.358,401.393 L -580.287,401.393 L -580.287,793.35 z" id="path3572"/>
    </clipPath>
    <clipPath id="clipPath3564">
      <path d="M -610.96,793.389 L -610.96,43.232 L 166.365,43.232 L 166.365,793.389" id="path3566"/>
    </clipPath>
    <clipPath id="clipPath3124">
      <path d="M 0,793.8 L 609.6,793.8 L 609.6,0 L 0,0 L 0,793.8 z" id="path3126"/>
    </clipPath>
    <clipPath id="clipPath3118">
      <path d="M 0,794 L 609,794 L 609,0 L 0,0 L 0,794 z" id="path3120"/>
    </clipPath>
    <clipPath id="clipPath3112">
      <path d="M 38.13,744.07 L 137.93,744.07 L 137.93,702.29 L 38.13,702.29 L 38.13,744.07 z" id="path3114"/>
    </clipPath>
  </defs>
  
<g class="currentLayer" style=""><title>Layer 1</title><g id="layer1" class="" fill-opacity="1" fill="#a783b3">
    <g id="g21287" fill="#a783b3">
      <path d="M78.92674281894176,17.951722947210783 C78.92674281894176,24.633192016310886 83.87781736904168,29.564145699911023 92.14212793614172,29.564145699911023 C95.62840340504175,29.564145699911023 98.92151855554175,29.012833957810926 102.3246277762417,27.423285504311025 L105.41519287064176,31.650008860410935 C101.1388380438417,33.91159425501087 97.02210875794174,35.093359814110954 90.69610833034176,35.093359814110954 C77.50620964404169,35.093359814110954 67.80661059994173,28.741872955610916 67.80661059994173,17.954405729411064 L67.80661059994173,17.95038155611087 C67.80661059994173,7.165597112111072 77.50620964404169,0.8114274714109797 90.69610833034176,0.8114274714109797 C97.02210875794174,0.8114274714109797 100.6572786389417,1.7383287215109249 105.11472126424172,3.648469647910815 L101.93964853054177,8.5043054299108 C98.56873269624168,6.708182747011051 95.62840340504175,6.340641585610911 92.14212793614172,6.340641585610911 C83.87781736904168,6.340641585610911 78.92674281894176,11.260864140411059 78.92674281894176,17.943674600610848 " id="path4448" style="fill-opacity: 1; fill-rule: nonzero; stroke: none;" stroke-width="0" fill="#a783b3"/>
      <path d="M129.2597610642418,0.8047205159109581 C116.48837640114175,0.8047205159109581 107.27570232634179,7.1615729388108775 107.27570232634179,17.949040165010956 C107.27570232634179,28.740531564511002 116.48837640114175,35.09201842301081 129.2597610642418,35.09201842301081 C142.0311457273417,35.09201842301081 151.24113701994168,28.740531564511002 151.24113701994168,17.949040165010956 C151.24113701994168,7.1615729388108775 142.0311457273417,0.8047205159109581 129.2597610642418,0.8047205159109581 M129.2597610642418,29.75864740941097 C122.23221309134175,29.75864740941097 118.35291003014174,24.478932039810843 118.35291003014174,17.943674600610848 C118.35291003014174,11.40841716141108 122.23221309134175,6.132725965110922 129.2597610642418,6.132725965110922 C136.28328486384174,6.132725965110922 140.1625879250417,11.40841716141108 140.1625879250417,17.943674600610848 C140.1625879250417,24.478932039810843 136.28328486384174,29.75864740941097 129.2597610642418,29.75864740941097 " id="path4450" style="fill-opacity: 1; fill-rule: nonzero; stroke: none;" stroke-width="0" fill="#a783b3"/>
      <path d="M184.44593230934169,20.429272308911095 L184.44593230934169,34.22682116351098 L194.99999748414183,34.22682116351098 L194.99999748414183,1.6685763843108816 L184.44593230934169,1.6685763843108816 L184.44593230934169,14.077785450411056 L168.31302154964163,14.077785450411056 L168.31302154964163,1.6685763843108816 L157.7804186324417,1.6685763843108816 L157.7804186324417,34.22682116351098 L168.31302154964163,34.22682116351098 L168.31302154964163,20.429272308911095 L184.44593230934169,20.429272308911095 z" id="path4452" style="fill-opacity: 1; fill-rule: nonzero; stroke: none;" stroke-width="0" fill="#a783b3"/>
      <path d="M50.32828456694176,34.22682116351098 L61.44439261264171,34.22682116351098 L61.44439261264171,1.6685763843108816 L50.32828456694176,1.6685763843108816 L50.32828456694176,34.22682116351098 z" id="path4454" style="fill-opacity: 1; fill-rule: nonzero; stroke: none;" stroke-width="0" fill="#a783b3"/>
      <path d="M18.44878368434172,16.57009011421087 L18.446100902141723,19.684800248410966 C23.6761848010417,23.726411632711006 29.002848859141693,29.10002437931098 32.910321133441755,34.22682116351098 L45.35038219484176,34.22682116351098 C41.020371724041695,29.142948894510937 34.383168561241746,23.098640597910844 29.49245661064174,20.060389756410814 C35.23092773644174,19.820280749510857 41.63472884784176,17.498332755410956 41.63472884784176,10.909419672210788 C41.63472884784176,2.4479246134108053 32.595094224941704,0.905324848410828 23.45887944284175,0.905324848410828 C15.995379362441724,0.905324848410828 9.114043019441738,1.246038187810882 4.999996515741714,1.5854101361110224 L4.999996515741714,34.22682116351098 L15.366266936541706,34.22682116351098 L15.366266936541706,6.494901562110954 C17.285797600641672,6.289668723811019 19.348857112441692,6.061632236810965 23.508510913541727,6.061632236810965 C28.851271664841704,6.061632236810965 31.554174731341675,7.824220142210834 31.554174731341675,10.909419672210788 C31.554174731341675,13.535863446011035 30.43545455394178,16.68410835771101 18.44878368434172,16.57009011421087 " id="path4456" style="fill-opacity: 1; fill-rule: nonzero; stroke: none;" stroke-width="0" fill="#a783b3"/>
    </g>
  </g></g></svg>